<?xml version="1.0"?>
<svg xmlns="http://www.w3.org/2000/svg" id="outline" viewBox="0 0 512 512" width="512" height="512"><path d="M428.207,56.95605,390.8877,77.05078A79.998,79.998,0,0,1,288.96,54.61328L262.3999,19.2002a7.9995,7.9995,0,0,0-12.7998,0L223.04,54.61328A79.998,79.998,0,0,1,121.1123,77.05078L83.793,56.95605A8.00009,8.00009,0,0,0,72,64V247.30566A260.58415,260.58415,0,0,0,253.57422,495.62305a7.99377,7.99377,0,0,0,4.85156,0A260.58415,260.58415,0,0,0,440,247.30566V64a8.00009,8.00009,0,0,0-11.793-7.044ZM424,247.30566A244.58322,244.58322,0,0,1,256,479.59082,244.58322,244.58322,0,0,1,88,247.30566V77.39355l25.52637,13.74512A95.998,95.998,0,0,0,235.83984,64.21289L256,37.333l20.16016,26.87988a95.99753,95.99753,0,0,0,122.313,26.92578L424,77.39355Z"/><path d="M328.502,121.291a102.96875,102.96875,0,0,1-58.12939-36.13086l-8.12549-10.15723a7.99943,7.99943,0,0,0-12.49414,0l-8.12549,10.15625a102.63928,102.63928,0,0,1-126.0498,27.68555A7.99928,7.99928,0,0,0,104,120v40h16V132.18652A118.62388,118.62388,0,0,0,254.12158,95.1543L256,92.80664l1.87842,2.34863A118.62537,118.62537,0,0,0,392,132.18652V248.21094A202.32467,202.32467,0,0,1,256,439.54883,202.32467,202.32467,0,0,1,120,248.21094V216H104v32.21094a218.318,218.318,0,0,0,149.47021,207.3789,8.00672,8.00672,0,0,0,5.05958,0A218.318,218.318,0,0,0,408,248.21094V120a7.99928,7.99928,0,0,0-11.57764-7.15527A102.96148,102.96148,0,0,1,328.502,121.291Z"/><rect x="104" y="184" width="16" height="16"/><path d="M240,208H224a24,24,0,0,0,0,48h16a8.00008,8.00008,0,0,0,8-8V216A8.00008,8.00008,0,0,0,240,208Zm-8,32h-8a8,8,0,0,1,0-16h8Z"/><path d="M272,144H240a8.00008,8.00008,0,0,0-8,8v24h-8a56,56,0,0,0,0,112h8v24H192a8.00008,8.00008,0,0,0-8,8v32a8.00008,8.00008,0,0,0,8,8h40v24a8.00008,8.00008,0,0,0,8,8h32a8.00008,8.00008,0,0,0,8-8V360h4a60,60,0,0,0,0-120h-4V224h40a8.00008,8.00008,0,0,0,8-8V184a8.00008,8.00008,0,0,0-8-8H280V152A8.00008,8.00008,0,0,0,272,144Zm40,48v16H272a8.00008,8.00008,0,0,0-8,8v32a8.00008,8.00008,0,0,0,8,8h12a44,44,0,0,1,0,88H272a8.00008,8.00008,0,0,0-8,8v24H248V352a8.00008,8.00008,0,0,0-8-8H200V328h40a8.00008,8.00008,0,0,0,8-8V280a8.00008,8.00008,0,0,0-8-8H224a40,40,0,0,1,0-80h16a8.00008,8.00008,0,0,0,8-8V160h16v24a8.00008,8.00008,0,0,0,8,8Z"/><path d="M264,320a8.00008,8.00008,0,0,0,8,8h12a28,28,0,0,0,0-56H272a8.00008,8.00008,0,0,0-8,8Zm16-32h4a12,12,0,0,1,0,24h-4Z"/></svg>
